<?xml version="1.0" encoding="UTF-8"?>
<svg width="144px" height="24px" viewBox="0 0 144 24" version="1.1" xmlns="http://www.w3.org/2000/svg" xmlns:xlink="http://www.w3.org/1999/xlink">
    <title>AL-logo@3x</title>
    <g id="机构优化" stroke="none" stroke-width="1" fill="none" fill-rule="evenodd">
        <g id="AL-logo">
            <g id="logo-字" transform="translate(33.000000, 5.250000)" fill="#FFFFFF">
                <path d="M7.87880263,0 L14.6282594,13.5 L12.9408952,13.5 L7.3163479,2.25 L1.69180059,13.5 L0,13.4851191 L6.75389317,0 L7.87880263,0 Z M16.3105254,5.1159077e-13 L26.4353146,11.25 L26.4353146,5.1159077e-13 L28.1289967,5.1159077e-13 L28.1289967,13.5 L26.4353146,13.5 L16.3105254,2.25 L16.3105254,7.5072048 L14.6282594,9 L14.6282594,5.1159077e-13 L16.3105254,5.1159077e-13 Z M43.8759054,0 L43.8759054,1.68242743 L37.9701307,1.68242743 L37.9701307,11.8215232 L36.2827665,13.5 L36.2827665,1.68242743 L30.3769919,1.68242743 L30.4846519,0 L43.8759054,0 Z M49.5004527,0 L56.2499095,13.5 L54.5625453,13.5 L48.937998,2.25 L43.3134507,13.5 L41.6216501,13.4851191 L48.3755432,0 L49.5004527,0 Z M102.375634,0 L103.500543,0 L110.25,13.5 L108.562636,13.5 L102.938089,2.25 L97.3135412,13.5 L95.6217406,13.4851191 L102.375634,0 Z M58.4997284,0 L60.186561,1.6875 L60.186561,11.8125 L66.9365493,11.8125 L68.6239135,13.5 L58.4997284,13.5 L58.4997284,0 Z M70.8737325,0 L75.6542581,0 C77.9842094,-4.28005108e-16 79.8730081,1.88879871 79.8730081,4.21875 C79.8730081,6.54870129 77.9842094,8.4375 75.6542581,8.4375 L75.3733703,8.4375 L75.3733703,8.4375 L73.6858199,6.75 L75.654394,6.75 C77.0523647,6.75 78.185644,5.61672077 78.185644,4.21875 C78.185644,2.82077923 77.0523647,1.6875 75.654394,1.6875 L72.5605131,1.6875 L72.5605131,1.6875 L72.5605131,13.5 L70.8737325,13.5 L70.8737325,0 Z M82.1228271,0 L83.8096597,1.6875 L83.8096597,5.90625 L91.6845575,5.90625 L91.6845575,0 L93.3719217,1.6875 L93.3719217,13.5 L91.6845575,11.8125 L91.6845575,7.59375 L83.8101913,7.59375 L83.8101913,13.5 L82.1228271,11.8125 L82.1228271,0 Z" id="形状结合"></path>
            </g>
            <g id="编组-18">
                <rect id="矩形" fill="#FFFFFF" x="0" y="0" width="24" height="24" rx="3"></rect>
                <path d="M10.8773822,7.5 L2.25228882,11.6254578 L2.25228882,12.375 L10.8773822,16.5 L10.8773822,15 L4.87552959,12 L10.8773822,9 L10.8773822,7.5 Z M13.1271955,7.5 L21.7522888,11.6254578 L21.7522888,12.375 L13.1271955,16.5 L13.1271955,15 L19.129048,12 L13.1271955,9 L13.1271955,7.5 Z" id="形状结合" fill="#2D1BFF"></path>
            </g>
        </g>
    </g>
</svg>